<svg xmlns="http://www.w3.org/2000/svg" xmlns:xlink="http://www.w3.org/1999/xlink" width="231" zoomAndPan="magnify" viewBox="0 0 173.25 60" height="80" preserveAspectRatio="xMidYMid meet" version="1.0"><defs><g/></defs><g fill="#0048e8" fill-opacity="0.5412"><g transform="translate(42.833284, 34.502555)"><g><path d="M 4.171875 2.890625 L 6.734375 2.890625 C 7.597656 2.890625 8.3125 2.710938 8.875 2.359375 L 8.875 3.078125 L 11.953125 3.078125 L 11.953125 -4.90625 C 11.953125 -5.875 11.671875 -6.65625 11.109375 -7.25 C 10.546875 -7.800781 9.65625 -8.078125 8.4375 -8.078125 L 4.890625 -8.078125 C 3.660156 -8.078125 2.769531 -7.800781 2.21875 -7.25 C 1.644531 -6.6875 1.359375 -5.90625 1.359375 -4.90625 L 1.359375 -4.671875 L 4.453125 -4.671875 C 4.453125 -5.097656 4.519531 -5.398438 4.65625 -5.578125 C 4.789062 -5.734375 5 -5.8125 5.28125 -5.8125 L 7.828125 -5.8125 C 8.242188 -5.8125 8.53125 -5.734375 8.6875 -5.578125 C 8.8125 -5.367188 8.875 -5.101562 8.875 -4.78125 L 8.875 -3.125 C 8.3125 -3.476562 7.597656 -3.65625 6.734375 -3.65625 L 4.171875 -3.65625 C 3.179688 -3.65625 2.40625 -3.425781 1.84375 -2.96875 C 1.28125 -2.507812 1 -1.800781 1 -0.84375 L 1 0.09375 C 1 1.050781 1.28125 1.757812 1.84375 2.21875 C 2.40625 2.664062 3.179688 2.890625 4.171875 2.890625 Z M 8.03125 0.8125 L 4.921875 0.8125 C 4.359375 0.8125 4.078125 0.53125 4.078125 -0.03125 L 4.078125 -0.90625 C 4.078125 -1.46875 4.359375 -1.75 4.921875 -1.75 L 8.03125 -1.75 C 8.59375 -1.75 8.875 -1.46875 8.875 -0.90625 L 8.875 -0.03125 C 8.875 0.53125 8.59375 0.8125 8.03125 0.8125 Z M 8.03125 0.8125 "/></g></g></g><g fill="#0048e8" fill-opacity="0.5412"><g transform="translate(55.786134, 34.502555)"><g><path d="M 4.28125 2.890625 L 4.28125 -12.453125 L 1.203125 -12.453125 L 1.203125 2.890625 Z M 4.28125 2.890625 "/></g></g></g><g fill="#0048e8" fill-opacity="0.5412"><g transform="translate(61.266187, 34.502555)"><g><path d="M 8.5 1.453125 L 8.5 4.375 C 8.5 4.695312 8.441406 4.960938 8.328125 5.171875 C 8.191406 5.335938 7.90625 5.421875 7.46875 5.421875 L 5.28125 5.421875 C 5.03125 5.421875 4.804688 5.351562 4.609375 5.21875 C 4.390625 5.070312 4.28125 4.828125 4.28125 4.484375 L 4.265625 3.34375 L 1.1875 3.34375 L 1.1875 4.5 C 1.1875 5.601562 1.492188 6.410156 2.109375 6.921875 C 2.722656 7.429688 3.585938 7.6875 4.703125 7.6875 L 8.0625 7.6875 C 9.164062 7.6875 10.035156 7.429688 10.671875 6.921875 C 11.285156 6.398438 11.59375 5.59375 11.59375 4.5 L 11.59375 -8.453125 L 8.5 -8.453125 L 8.5 -7.5625 C 8.382812 -7.632812 8.253906 -7.703125 8.109375 -7.765625 C 7.960938 -7.828125 7.804688 -7.882812 7.640625 -7.9375 C 7.285156 -8.03125 6.984375 -8.078125 6.734375 -8.078125 L 4.515625 -8.078125 C 3.398438 -8.078125 2.535156 -7.828125 1.921875 -7.328125 C 1.304688 -6.816406 1 -6.007812 1 -4.90625 L 1 -1.203125 C 1 -0.0859375 1.304688 0.71875 1.921875 1.21875 C 2.535156 1.71875 3.398438 1.96875 4.515625 1.96875 L 6.734375 1.96875 C 6.984375 1.96875 7.285156 1.921875 7.640625 1.828125 C 7.804688 1.765625 7.960938 1.703125 8.109375 1.640625 C 8.253906 1.585938 8.382812 1.523438 8.5 1.453125 Z M 4.078125 -1.421875 L 4.078125 -4.6875 C 4.078125 -5.375 4.421875 -5.71875 5.109375 -5.71875 L 7.46875 -5.71875 C 8.15625 -5.71875 8.5 -5.375 8.5 -4.6875 L 8.5 -1.421875 C 8.5 -0.734375 8.15625 -0.390625 7.46875 -0.390625 L 5.109375 -0.390625 C 4.421875 -0.390625 4.078125 -0.734375 4.078125 -1.421875 Z M 4.078125 -1.421875 "/></g></g></g><g fill="#0048e8" fill-opacity="0.5412"><g transform="translate(73.850012, 34.502555)"><g><path d="M 8.5 -4.8125 L 8.5 -0.375 C 8.5 0 8.429688 0.265625 8.296875 0.421875 C 8.140625 0.554688 7.929688 0.625 7.671875 0.625 L 5.109375 0.625 C 4.671875 0.625 4.390625 0.546875 4.265625 0.390625 C 4.140625 0.210938 4.078125 -0.0507812 4.078125 -0.40625 L 4.078125 -4.78125 C 4.078125 -5.132812 4.140625 -5.398438 4.265625 -5.578125 C 4.390625 -5.734375 4.671875 -5.8125 5.109375 -5.8125 L 7.671875 -5.8125 C 7.929688 -5.8125 8.140625 -5.742188 8.296875 -5.609375 C 8.429688 -5.453125 8.5 -5.1875 8.5 -4.8125 Z M 11.59375 -0.28125 L 11.59375 -4.90625 C 11.59375 -5.875 11.304688 -6.65625 10.734375 -7.25 C 10.171875 -7.800781 9.28125 -8.078125 8.0625 -8.078125 L 4.515625 -8.078125 C 3.285156 -8.078125 2.394531 -7.800781 1.84375 -7.25 C 1.28125 -6.6875 1 -5.90625 1 -4.90625 L 1 -0.28125 C 1 0.71875 1.28125 1.5 1.84375 2.0625 C 2.394531 2.613281 3.285156 2.890625 4.515625 2.890625 L 8.0625 2.890625 C 9.28125 2.890625 10.171875 2.613281 10.734375 2.0625 C 11.304688 1.476562 11.59375 0.695312 11.59375 -0.28125 Z M 11.59375 -0.28125 "/></g></g></g><g fill="#0048e8" fill-opacity="0.5412"><g transform="translate(86.433838, 34.502555)"><g><path d="M 1.203125 2.890625 L 4.375 2.890625 L 4.375 -0.0625 L 1.203125 -0.0625 Z M 1.203125 2.890625 "/></g></g></g><g fill="#0048e8" fill-opacity="0.5412"><g transform="translate(91.895438, 34.502555)"><g><path d="M 5.75 -7.78125 L 5.75 -8.859375 C 5.75 -9.285156 5.835938 -9.585938 6.015625 -9.765625 C 6.171875 -9.921875 6.46875 -10 6.90625 -10 L 7.8125 -10 L 7.8125 -12.453125 L 6.03125 -12.453125 C 4.914062 -12.453125 4.082031 -12.25 3.53125 -11.84375 C 2.957031 -11.4375 2.671875 -10.738281 2.671875 -9.75 L 2.671875 -7.78125 L 0.625 -7.78125 L 0.625 -5.515625 L 2.671875 -5.515625 L 2.671875 2.890625 L 5.75 2.890625 L 5.75 -5.515625 L 7.8125 -5.515625 L 7.8125 -7.78125 Z M 5.75 -7.78125 "/></g></g></g><g fill="#0048e8" fill-opacity="0.5412"><g transform="translate(100.327708, 34.502555)"><g><path d="M 4.28125 -7.4375 L 1.203125 -7.4375 L 1.203125 2.890625 L 4.28125 2.890625 Z M 1.203125 -12.453125 L 1.203125 -8.78125 L 4.28125 -8.78125 L 4.28125 -12.453125 Z M 1.203125 -12.453125 "/></g></g></g><g fill="#0048e8" fill-opacity="0.5412"><g transform="translate(105.807757, 34.502555)"><g><path d="M 11.59375 -1.203125 L 11.59375 -4.90625 C 11.59375 -6 11.285156 -6.804688 10.671875 -7.328125 C 10.023438 -7.828125 9.15625 -8.078125 8.0625 -8.078125 L 5.84375 -8.078125 C 5.695312 -8.078125 5.550781 -8.066406 5.40625 -8.046875 C 5.257812 -8.023438 5.097656 -7.988281 4.921875 -7.9375 C 4.765625 -7.882812 4.613281 -7.828125 4.46875 -7.765625 C 4.320312 -7.703125 4.191406 -7.632812 4.078125 -7.5625 L 4.078125 -8.453125 L 1 -8.453125 L 1 7.140625 L 4.078125 7.140625 L 4.078125 1.453125 C 4.191406 1.523438 4.320312 1.585938 4.46875 1.640625 C 4.613281 1.703125 4.765625 1.765625 4.921875 1.828125 C 5.097656 1.878906 5.257812 1.914062 5.40625 1.9375 C 5.550781 1.957031 5.695312 1.96875 5.84375 1.96875 L 8.0625 1.96875 C 9.15625 1.96875 10.023438 1.71875 10.671875 1.21875 C 11.285156 0.695312 11.59375 -0.109375 11.59375 -1.203125 Z M 8.5 -4.6875 L 8.5 -1.421875 C 8.5 -0.734375 8.15625 -0.390625 7.46875 -0.390625 L 5.109375 -0.390625 C 4.421875 -0.390625 4.078125 -0.734375 4.078125 -1.421875 L 4.078125 -4.6875 C 4.078125 -5.375 4.421875 -5.71875 5.109375 -5.71875 L 7.46875 -5.71875 C 8.15625 -5.71875 8.5 -5.375 8.5 -4.6875 Z M 8.5 -4.6875 "/></g></g></g><g fill="#0048e8" fill-opacity="0.5412"><g transform="translate(118.391586, 34.502555)"><g><path d="M 8.5 -4.8125 L 8.5 -0.375 C 8.5 0 8.429688 0.265625 8.296875 0.421875 C 8.140625 0.554688 7.929688 0.625 7.671875 0.625 L 5.109375 0.625 C 4.671875 0.625 4.390625 0.546875 4.265625 0.390625 C 4.140625 0.210938 4.078125 -0.0507812 4.078125 -0.40625 L 4.078125 -4.78125 C 4.078125 -5.132812 4.140625 -5.398438 4.265625 -5.578125 C 4.390625 -5.734375 4.671875 -5.8125 5.109375 -5.8125 L 7.671875 -5.8125 C 7.929688 -5.8125 8.140625 -5.742188 8.296875 -5.609375 C 8.429688 -5.453125 8.5 -5.1875 8.5 -4.8125 Z M 11.59375 -0.28125 L 11.59375 -4.90625 C 11.59375 -5.875 11.304688 -6.65625 10.734375 -7.25 C 10.171875 -7.800781 9.28125 -8.078125 8.0625 -8.078125 L 4.515625 -8.078125 C 3.285156 -8.078125 2.394531 -7.800781 1.84375 -7.25 C 1.28125 -6.6875 1 -5.90625 1 -4.90625 L 1 -0.28125 C 1 0.71875 1.28125 1.5 1.84375 2.0625 C 2.394531 2.613281 3.285156 2.890625 4.515625 2.890625 L 8.0625 2.890625 C 9.28125 2.890625 10.171875 2.613281 10.734375 2.0625 C 11.304688 1.476562 11.59375 0.695312 11.59375 -0.28125 Z M 11.59375 -0.28125 "/></g></g></g><g fill="#0048e8" fill-opacity="1"><g transform="translate(42.18017, 33.101944)"><g><path d="M 4.171875 2.890625 L 6.734375 2.890625 C 7.597656 2.890625 8.3125 2.710938 8.875 2.359375 L 8.875 3.078125 L 11.953125 3.078125 L 11.953125 -4.90625 C 11.953125 -5.875 11.671875 -6.65625 11.109375 -7.25 C 10.546875 -7.800781 9.65625 -8.078125 8.4375 -8.078125 L 4.890625 -8.078125 C 3.660156 -8.078125 2.769531 -7.800781 2.21875 -7.25 C 1.644531 -6.6875 1.359375 -5.90625 1.359375 -4.90625 L 1.359375 -4.671875 L 4.453125 -4.671875 C 4.453125 -5.097656 4.519531 -5.398438 4.65625 -5.578125 C 4.789062 -5.734375 5 -5.8125 5.28125 -5.8125 L 7.828125 -5.8125 C 8.242188 -5.8125 8.53125 -5.734375 8.6875 -5.578125 C 8.8125 -5.367188 8.875 -5.101562 8.875 -4.78125 L 8.875 -3.125 C 8.3125 -3.476562 7.597656 -3.65625 6.734375 -3.65625 L 4.171875 -3.65625 C 3.179688 -3.65625 2.40625 -3.425781 1.84375 -2.96875 C 1.28125 -2.507812 1 -1.800781 1 -0.84375 L 1 0.09375 C 1 1.050781 1.28125 1.757812 1.84375 2.21875 C 2.40625 2.664062 3.179688 2.890625 4.171875 2.890625 Z M 8.03125 0.8125 L 4.921875 0.8125 C 4.359375 0.8125 4.078125 0.53125 4.078125 -0.03125 L 4.078125 -0.90625 C 4.078125 -1.46875 4.359375 -1.75 4.921875 -1.75 L 8.03125 -1.75 C 8.59375 -1.75 8.875 -1.46875 8.875 -0.90625 L 8.875 -0.03125 C 8.875 0.53125 8.59375 0.8125 8.03125 0.8125 Z M 8.03125 0.8125 "/></g></g></g><g fill="#0048e8" fill-opacity="1"><g transform="translate(55.13302, 33.101944)"><g><path d="M 4.28125 2.890625 L 4.28125 -12.453125 L 1.203125 -12.453125 L 1.203125 2.890625 Z M 4.28125 2.890625 "/></g></g></g><g fill="#0048e8" fill-opacity="1"><g transform="translate(60.613073, 33.101944)"><g><path d="M 8.5 1.453125 L 8.5 4.375 C 8.5 4.695312 8.441406 4.960938 8.328125 5.171875 C 8.191406 5.335938 7.90625 5.421875 7.46875 5.421875 L 5.28125 5.421875 C 5.03125 5.421875 4.804688 5.351562 4.609375 5.21875 C 4.390625 5.070312 4.28125 4.828125 4.28125 4.484375 L 4.265625 3.34375 L 1.1875 3.34375 L 1.1875 4.5 C 1.1875 5.601562 1.492188 6.410156 2.109375 6.921875 C 2.722656 7.429688 3.585938 7.6875 4.703125 7.6875 L 8.0625 7.6875 C 9.164062 7.6875 10.035156 7.429688 10.671875 6.921875 C 11.285156 6.398438 11.59375 5.59375 11.59375 4.5 L 11.59375 -8.453125 L 8.5 -8.453125 L 8.5 -7.5625 C 8.382812 -7.632812 8.253906 -7.703125 8.109375 -7.765625 C 7.960938 -7.828125 7.804688 -7.882812 7.640625 -7.9375 C 7.285156 -8.03125 6.984375 -8.078125 6.734375 -8.078125 L 4.515625 -8.078125 C 3.398438 -8.078125 2.535156 -7.828125 1.921875 -7.328125 C 1.304688 -6.816406 1 -6.007812 1 -4.90625 L 1 -1.203125 C 1 -0.0859375 1.304688 0.71875 1.921875 1.21875 C 2.535156 1.71875 3.398438 1.96875 4.515625 1.96875 L 6.734375 1.96875 C 6.984375 1.96875 7.285156 1.921875 7.640625 1.828125 C 7.804688 1.765625 7.960938 1.703125 8.109375 1.640625 C 8.253906 1.585938 8.382812 1.523438 8.5 1.453125 Z M 4.078125 -1.421875 L 4.078125 -4.6875 C 4.078125 -5.375 4.421875 -5.71875 5.109375 -5.71875 L 7.46875 -5.71875 C 8.15625 -5.71875 8.5 -5.375 8.5 -4.6875 L 8.5 -1.421875 C 8.5 -0.734375 8.15625 -0.390625 7.46875 -0.390625 L 5.109375 -0.390625 C 4.421875 -0.390625 4.078125 -0.734375 4.078125 -1.421875 Z M 4.078125 -1.421875 "/></g></g></g><g fill="#0048e8" fill-opacity="1"><g transform="translate(73.196898, 33.101944)"><g><path d="M 8.5 -4.8125 L 8.5 -0.375 C 8.5 0 8.429688 0.265625 8.296875 0.421875 C 8.140625 0.554688 7.929688 0.625 7.671875 0.625 L 5.109375 0.625 C 4.671875 0.625 4.390625 0.546875 4.265625 0.390625 C 4.140625 0.210938 4.078125 -0.0507812 4.078125 -0.40625 L 4.078125 -4.78125 C 4.078125 -5.132812 4.140625 -5.398438 4.265625 -5.578125 C 4.390625 -5.734375 4.671875 -5.8125 5.109375 -5.8125 L 7.671875 -5.8125 C 7.929688 -5.8125 8.140625 -5.742188 8.296875 -5.609375 C 8.429688 -5.453125 8.5 -5.1875 8.5 -4.8125 Z M 11.59375 -0.28125 L 11.59375 -4.90625 C 11.59375 -5.875 11.304688 -6.65625 10.734375 -7.25 C 10.171875 -7.800781 9.28125 -8.078125 8.0625 -8.078125 L 4.515625 -8.078125 C 3.285156 -8.078125 2.394531 -7.800781 1.84375 -7.25 C 1.28125 -6.6875 1 -5.90625 1 -4.90625 L 1 -0.28125 C 1 0.71875 1.28125 1.5 1.84375 2.0625 C 2.394531 2.613281 3.285156 2.890625 4.515625 2.890625 L 8.0625 2.890625 C 9.28125 2.890625 10.171875 2.613281 10.734375 2.0625 C 11.304688 1.476562 11.59375 0.695312 11.59375 -0.28125 Z M 11.59375 -0.28125 "/></g></g></g><g fill="#0048e8" fill-opacity="1"><g transform="translate(85.780724, 33.101944)"><g><path d="M 1.203125 2.890625 L 4.375 2.890625 L 4.375 -0.0625 L 1.203125 -0.0625 Z M 1.203125 2.890625 "/></g></g></g><g fill="#0048e8" fill-opacity="1"><g transform="translate(91.242324, 33.101944)"><g><path d="M 5.75 -7.78125 L 5.75 -8.859375 C 5.75 -9.285156 5.835938 -9.585938 6.015625 -9.765625 C 6.171875 -9.921875 6.46875 -10 6.90625 -10 L 7.8125 -10 L 7.8125 -12.453125 L 6.03125 -12.453125 C 4.914062 -12.453125 4.082031 -12.25 3.53125 -11.84375 C 2.957031 -11.4375 2.671875 -10.738281 2.671875 -9.75 L 2.671875 -7.78125 L 0.625 -7.78125 L 0.625 -5.515625 L 2.671875 -5.515625 L 2.671875 2.890625 L 5.75 2.890625 L 5.75 -5.515625 L 7.8125 -5.515625 L 7.8125 -7.78125 Z M 5.75 -7.78125 "/></g></g></g><g fill="#0048e8" fill-opacity="1"><g transform="translate(99.674594, 33.101944)"><g><path d="M 4.28125 -7.4375 L 1.203125 -7.4375 L 1.203125 2.890625 L 4.28125 2.890625 Z M 1.203125 -12.453125 L 1.203125 -8.78125 L 4.28125 -8.78125 L 4.28125 -12.453125 Z M 1.203125 -12.453125 "/></g></g></g><g fill="#0048e8" fill-opacity="1"><g transform="translate(105.154643, 33.101944)"><g><path d="M 11.59375 -1.203125 L 11.59375 -4.90625 C 11.59375 -6 11.285156 -6.804688 10.671875 -7.328125 C 10.023438 -7.828125 9.15625 -8.078125 8.0625 -8.078125 L 5.84375 -8.078125 C 5.695312 -8.078125 5.550781 -8.066406 5.40625 -8.046875 C 5.257812 -8.023438 5.097656 -7.988281 4.921875 -7.9375 C 4.765625 -7.882812 4.613281 -7.828125 4.46875 -7.765625 C 4.320312 -7.703125 4.191406 -7.632812 4.078125 -7.5625 L 4.078125 -8.453125 L 1 -8.453125 L 1 7.140625 L 4.078125 7.140625 L 4.078125 1.453125 C 4.191406 1.523438 4.320312 1.585938 4.46875 1.640625 C 4.613281 1.703125 4.765625 1.765625 4.921875 1.828125 C 5.097656 1.878906 5.257812 1.914062 5.40625 1.9375 C 5.550781 1.957031 5.695312 1.96875 5.84375 1.96875 L 8.0625 1.96875 C 9.15625 1.96875 10.023438 1.71875 10.671875 1.21875 C 11.285156 0.695312 11.59375 -0.109375 11.59375 -1.203125 Z M 8.5 -4.6875 L 8.5 -1.421875 C 8.5 -0.734375 8.15625 -0.390625 7.46875 -0.390625 L 5.109375 -0.390625 C 4.421875 -0.390625 4.078125 -0.734375 4.078125 -1.421875 L 4.078125 -4.6875 C 4.078125 -5.375 4.421875 -5.71875 5.109375 -5.71875 L 7.46875 -5.71875 C 8.15625 -5.71875 8.5 -5.375 8.5 -4.6875 Z M 8.5 -4.6875 "/></g></g></g><g fill="#0048e8" fill-opacity="1"><g transform="translate(117.738472, 33.101944)"><g><path d="M 8.5 -4.8125 L 8.5 -0.375 C 8.5 0 8.429688 0.265625 8.296875 0.421875 C 8.140625 0.554688 7.929688 0.625 7.671875 0.625 L 5.109375 0.625 C 4.671875 0.625 4.390625 0.546875 4.265625 0.390625 C 4.140625 0.210938 4.078125 -0.0507812 4.078125 -0.40625 L 4.078125 -4.78125 C 4.078125 -5.132812 4.140625 -5.398438 4.265625 -5.578125 C 4.390625 -5.734375 4.671875 -5.8125 5.109375 -5.8125 L 7.671875 -5.8125 C 7.929688 -5.8125 8.140625 -5.742188 8.296875 -5.609375 C 8.429688 -5.453125 8.5 -5.1875 8.5 -4.8125 Z M 11.59375 -0.28125 L 11.59375 -4.90625 C 11.59375 -5.875 11.304688 -6.65625 10.734375 -7.25 C 10.171875 -7.800781 9.28125 -8.078125 8.0625 -8.078125 L 4.515625 -8.078125 C 3.285156 -8.078125 2.394531 -7.800781 1.84375 -7.25 C 1.28125 -6.6875 1 -5.90625 1 -4.90625 L 1 -0.28125 C 1 0.71875 1.28125 1.5 1.84375 2.0625 C 2.394531 2.613281 3.285156 2.890625 4.515625 2.890625 L 8.0625 2.890625 C 9.28125 2.890625 10.171875 2.613281 10.734375 2.0625 C 11.304688 1.476562 11.59375 0.695312 11.59375 -0.28125 Z M 11.59375 -0.28125 "/></g></g></g></svg>