<svg xmlns="http://www.w3.org/2000/svg" xmlns:xlink="http://www.w3.org/1999/xlink" width="231" zoomAndPan="magnify" viewBox="0 0 173.25 60" height="80" preserveAspectRatio="xMidYMid meet" version="1.0"><defs><g/></defs><g fill="#0048e8" fill-opacity="0.5412"><g transform="translate(1.27829, 38.811668)"><g><path d="M 8.15625 5.671875 L 13.1875 5.671875 C 14.863281 5.671875 16.257812 5.320312 17.375 4.625 L 17.375 6.03125 L 23.40625 6.03125 L 23.40625 -9.609375 C 23.40625 -11.503906 22.847656 -13.03125 21.734375 -14.1875 C 20.628906 -15.269531 18.882812 -15.8125 16.5 -15.8125 L 9.5625 -15.8125 C 7.15625 -15.8125 5.410156 -15.269531 4.328125 -14.1875 C 3.222656 -13.082031 2.671875 -11.554688 2.671875 -9.609375 L 2.671875 -9.140625 L 8.703125 -9.140625 C 8.703125 -9.984375 8.832031 -10.570312 9.09375 -10.90625 C 9.363281 -11.21875 9.773438 -11.375 10.328125 -11.375 L 15.3125 -11.375 C 16.125 -11.375 16.6875 -11.21875 17 -10.90625 C 17.25 -10.5 17.375 -9.984375 17.375 -9.359375 L 17.375 -6.109375 C 16.257812 -6.804688 14.863281 -7.15625 13.1875 -7.15625 L 8.15625 -7.15625 C 6.226562 -7.15625 4.710938 -6.707031 3.609375 -5.8125 C 2.503906 -4.925781 1.953125 -3.539062 1.953125 -1.65625 L 1.953125 0.1875 C 1.953125 2.0625 2.503906 3.441406 3.609375 4.328125 C 4.710938 5.222656 6.226562 5.671875 8.15625 5.671875 Z M 15.703125 1.59375 L 9.640625 1.59375 C 8.535156 1.59375 7.984375 1.035156 7.984375 -0.078125 L 7.984375 -1.765625 C 7.984375 -2.878906 8.535156 -3.4375 9.640625 -3.4375 L 15.703125 -3.4375 C 16.816406 -3.4375 17.375 -2.878906 17.375 -1.765625 L 17.375 -0.078125 C 17.375 1.035156 16.816406 1.59375 15.703125 1.59375 Z M 15.703125 1.59375 "/></g></g></g><g fill="#0048e8" fill-opacity="0.5412"><g transform="translate(26.629848, 38.811668)"><g><path d="M 8.375 5.671875 L 8.375 -24.375 L 2.34375 -24.375 L 2.34375 5.671875 Z M 8.375 5.671875 "/></g></g></g><g fill="#0048e8" fill-opacity="0.5412"><g transform="translate(37.355508, 38.811668)"><g><path d="M 16.640625 2.859375 L 16.640625 8.5625 C 16.640625 9.1875 16.519531 9.703125 16.28125 10.109375 C 16.019531 10.441406 15.46875 10.609375 14.625 10.609375 L 10.328125 10.609375 C 9.847656 10.609375 9.414062 10.476562 9.03125 10.21875 C 8.59375 9.925781 8.375 9.445312 8.375 8.78125 L 8.34375 6.53125 L 2.3125 6.53125 L 2.3125 8.8125 C 2.3125 10.976562 2.910156 12.554688 4.109375 13.546875 C 5.316406 14.554688 7.015625 15.0625 9.203125 15.0625 L 15.78125 15.0625 C 17.945312 15.0625 19.644531 14.554688 20.875 13.546875 C 22.070312 12.535156 22.671875 10.957031 22.671875 8.8125 L 22.671875 -16.53125 L 16.640625 -16.53125 L 16.640625 -14.8125 C 16.398438 -14.945312 16.140625 -15.070312 15.859375 -15.1875 C 15.585938 -15.3125 15.285156 -15.425781 14.953125 -15.53125 C 14.253906 -15.71875 13.664062 -15.8125 13.1875 -15.8125 L 8.84375 -15.8125 C 6.65625 -15.8125 4.957031 -15.316406 3.75 -14.328125 C 2.550781 -13.347656 1.953125 -11.773438 1.953125 -9.609375 L 1.953125 -2.34375 C 1.953125 -0.175781 2.550781 1.398438 3.75 2.390625 C 4.957031 3.367188 6.65625 3.859375 8.84375 3.859375 L 13.1875 3.859375 C 13.664062 3.859375 14.253906 3.765625 14.953125 3.578125 C 15.285156 3.453125 15.585938 3.332031 15.859375 3.21875 C 16.140625 3.113281 16.398438 2.992188 16.640625 2.859375 Z M 7.984375 -2.78125 L 7.984375 -9.171875 C 7.984375 -10.515625 8.65625 -11.1875 10 -11.1875 L 14.625 -11.1875 C 15.96875 -11.1875 16.640625 -10.515625 16.640625 -9.171875 L 16.640625 -2.78125 C 16.640625 -1.4375 15.96875 -0.765625 14.625 -0.765625 L 10 -0.765625 C 8.65625 -0.765625 7.984375 -1.4375 7.984375 -2.78125 Z M 7.984375 -2.78125 "/></g></g></g><g fill="#0048e8" fill-opacity="0.5412"><g transform="translate(61.984804, 38.811668)"><g><path d="M 16.640625 -9.421875 L 16.640625 -0.71875 C 16.640625 0 16.507812 0.515625 16.25 0.828125 C 15.9375 1.097656 15.523438 1.234375 15.015625 1.234375 L 10 1.234375 C 9.132812 1.234375 8.582031 1.078125 8.34375 0.765625 C 8.101562 0.421875 7.984375 -0.0976562 7.984375 -0.796875 L 7.984375 -9.359375 C 7.984375 -10.054688 8.101562 -10.570312 8.34375 -10.90625 C 8.582031 -11.21875 9.132812 -11.375 10 -11.375 L 15.015625 -11.375 C 15.523438 -11.375 15.9375 -11.242188 16.25 -10.984375 C 16.507812 -10.671875 16.640625 -10.148438 16.640625 -9.421875 Z M 22.671875 -0.546875 L 22.671875 -9.609375 C 22.671875 -11.503906 22.117188 -13.03125 21.015625 -14.1875 C 19.910156 -15.269531 18.164062 -15.8125 15.78125 -15.8125 L 8.84375 -15.8125 C 6.4375 -15.8125 4.691406 -15.269531 3.609375 -14.1875 C 2.503906 -13.082031 1.953125 -11.554688 1.953125 -9.609375 L 1.953125 -0.546875 C 1.953125 1.410156 2.503906 2.941406 3.609375 4.046875 C 4.691406 5.128906 6.4375 5.671875 8.84375 5.671875 L 15.78125 5.671875 C 18.164062 5.671875 19.910156 5.128906 21.015625 4.046875 C 22.117188 2.890625 22.671875 1.359375 22.671875 -0.546875 Z M 22.671875 -0.546875 "/></g></g></g><g fill="#0048e8" fill-opacity="0.5412"><g transform="translate(86.614101, 38.811668)"><g><path d="M 2.34375 5.671875 L 8.5625 5.671875 L 8.5625 -0.109375 L 2.34375 -0.109375 Z M 2.34375 5.671875 "/></g></g></g><g fill="#0048e8" fill-opacity="0.5412"><g transform="translate(97.303646, 38.811668)"><g><path d="M 11.265625 -15.234375 L 11.265625 -17.328125 C 11.265625 -18.171875 11.429688 -18.765625 11.765625 -19.109375 C 12.078125 -19.421875 12.65625 -19.578125 13.5 -19.578125 L 15.28125 -19.578125 L 15.28125 -24.375 L 11.8125 -24.375 C 9.613281 -24.375 7.972656 -23.976562 6.890625 -23.1875 C 5.785156 -22.382812 5.234375 -21.007812 5.234375 -19.0625 L 5.234375 -15.234375 L 1.234375 -15.234375 L 1.234375 -10.796875 L 5.234375 -10.796875 L 5.234375 5.671875 L 11.265625 5.671875 L 11.265625 -10.796875 L 15.28125 -10.796875 L 15.28125 -15.234375 Z M 11.265625 -15.234375 "/></g></g></g><g fill="#0048e8" fill-opacity="0.5412"><g transform="translate(113.80744, 38.811668)"><g><path d="M 8.375 -14.546875 L 2.34375 -14.546875 L 2.34375 5.671875 L 8.375 5.671875 Z M 2.34375 -24.375 L 2.34375 -17.1875 L 8.375 -17.1875 L 8.375 -24.375 Z M 2.34375 -24.375 "/></g></g></g><g fill="#0048e8" fill-opacity="0.5412"><g transform="translate(124.533093, 38.811668)"><g><path d="M 22.671875 -2.34375 L 22.671875 -9.609375 C 22.671875 -11.742188 22.070312 -13.316406 20.875 -14.328125 C 19.625 -15.316406 17.925781 -15.8125 15.78125 -15.8125 L 11.453125 -15.8125 C 11.160156 -15.8125 10.867188 -15.785156 10.578125 -15.734375 C 10.285156 -15.691406 9.972656 -15.625 9.640625 -15.53125 C 9.328125 -15.425781 9.023438 -15.3125 8.734375 -15.1875 C 8.453125 -15.070312 8.203125 -14.945312 7.984375 -14.8125 L 7.984375 -16.53125 L 1.953125 -16.53125 L 1.953125 13.96875 L 7.984375 13.96875 L 7.984375 2.859375 C 8.203125 2.992188 8.453125 3.113281 8.734375 3.21875 C 9.023438 3.332031 9.328125 3.453125 9.640625 3.578125 C 9.972656 3.671875 10.285156 3.738281 10.578125 3.78125 C 10.867188 3.832031 11.160156 3.859375 11.453125 3.859375 L 15.78125 3.859375 C 17.925781 3.859375 19.625 3.367188 20.875 2.390625 C 22.070312 1.367188 22.671875 -0.207031 22.671875 -2.34375 Z M 16.640625 -9.171875 L 16.640625 -2.78125 C 16.640625 -1.4375 15.96875 -0.765625 14.625 -0.765625 L 10 -0.765625 C 8.65625 -0.765625 7.984375 -1.4375 7.984375 -2.78125 L 7.984375 -9.171875 C 7.984375 -10.515625 8.65625 -11.1875 10 -11.1875 L 14.625 -11.1875 C 15.96875 -11.1875 16.640625 -10.515625 16.640625 -9.171875 Z M 16.640625 -9.171875 "/></g></g></g><g fill="#0048e8" fill-opacity="0.5412"><g transform="translate(149.162397, 38.811668)"><g><path d="M 16.640625 -9.421875 L 16.640625 -0.71875 C 16.640625 0 16.507812 0.515625 16.25 0.828125 C 15.9375 1.097656 15.523438 1.234375 15.015625 1.234375 L 10 1.234375 C 9.132812 1.234375 8.582031 1.078125 8.34375 0.765625 C 8.101562 0.421875 7.984375 -0.0976562 7.984375 -0.796875 L 7.984375 -9.359375 C 7.984375 -10.054688 8.101562 -10.570312 8.34375 -10.90625 C 8.582031 -11.21875 9.132812 -11.375 10 -11.375 L 15.015625 -11.375 C 15.523438 -11.375 15.9375 -11.242188 16.25 -10.984375 C 16.507812 -10.671875 16.640625 -10.148438 16.640625 -9.421875 Z M 22.671875 -0.546875 L 22.671875 -9.609375 C 22.671875 -11.503906 22.117188 -13.03125 21.015625 -14.1875 C 19.910156 -15.269531 18.164062 -15.8125 15.78125 -15.8125 L 8.84375 -15.8125 C 6.4375 -15.8125 4.691406 -15.269531 3.609375 -14.1875 C 2.503906 -13.082031 1.953125 -11.554688 1.953125 -9.609375 L 1.953125 -0.546875 C 1.953125 1.410156 2.503906 2.941406 3.609375 4.046875 C 4.691406 5.128906 6.4375 5.671875 8.84375 5.671875 L 15.78125 5.671875 C 18.164062 5.671875 19.910156 5.128906 21.015625 4.046875 C 22.117188 2.890625 22.671875 1.359375 22.671875 -0.546875 Z M 22.671875 -0.546875 "/></g></g></g><g fill="#0048e8" fill-opacity="1"><g transform="translate(0.000000000000010612, 36.070367)"><g><path d="M 8.15625 5.671875 L 13.1875 5.671875 C 14.863281 5.671875 16.257812 5.320312 17.375 4.625 L 17.375 6.03125 L 23.40625 6.03125 L 23.40625 -9.609375 C 23.40625 -11.503906 22.847656 -13.03125 21.734375 -14.1875 C 20.628906 -15.269531 18.882812 -15.8125 16.5 -15.8125 L 9.5625 -15.8125 C 7.15625 -15.8125 5.410156 -15.269531 4.328125 -14.1875 C 3.222656 -13.082031 2.671875 -11.554688 2.671875 -9.609375 L 2.671875 -9.140625 L 8.703125 -9.140625 C 8.703125 -9.984375 8.832031 -10.570312 9.09375 -10.90625 C 9.363281 -11.21875 9.773438 -11.375 10.328125 -11.375 L 15.3125 -11.375 C 16.125 -11.375 16.6875 -11.21875 17 -10.90625 C 17.25 -10.5 17.375 -9.984375 17.375 -9.359375 L 17.375 -6.109375 C 16.257812 -6.804688 14.863281 -7.15625 13.1875 -7.15625 L 8.15625 -7.15625 C 6.226562 -7.15625 4.710938 -6.707031 3.609375 -5.8125 C 2.503906 -4.925781 1.953125 -3.539062 1.953125 -1.65625 L 1.953125 0.1875 C 1.953125 2.0625 2.503906 3.441406 3.609375 4.328125 C 4.710938 5.222656 6.226562 5.671875 8.15625 5.671875 Z M 15.703125 1.59375 L 9.640625 1.59375 C 8.535156 1.59375 7.984375 1.035156 7.984375 -0.078125 L 7.984375 -1.765625 C 7.984375 -2.878906 8.535156 -3.4375 9.640625 -3.4375 L 15.703125 -3.4375 C 16.816406 -3.4375 17.375 -2.878906 17.375 -1.765625 L 17.375 -0.078125 C 17.375 1.035156 16.816406 1.59375 15.703125 1.59375 Z M 15.703125 1.59375 "/></g></g></g><g fill="#0048e8" fill-opacity="1"><g transform="translate(25.351558, 36.070367)"><g><path d="M 8.375 5.671875 L 8.375 -24.375 L 2.34375 -24.375 L 2.34375 5.671875 Z M 8.375 5.671875 "/></g></g></g><g fill="#0048e8" fill-opacity="1"><g transform="translate(36.077218, 36.070367)"><g><path d="M 16.640625 2.859375 L 16.640625 8.5625 C 16.640625 9.1875 16.519531 9.703125 16.28125 10.109375 C 16.019531 10.441406 15.46875 10.609375 14.625 10.609375 L 10.328125 10.609375 C 9.847656 10.609375 9.414062 10.476562 9.03125 10.21875 C 8.59375 9.925781 8.375 9.445312 8.375 8.78125 L 8.34375 6.53125 L 2.3125 6.53125 L 2.3125 8.8125 C 2.3125 10.976562 2.910156 12.554688 4.109375 13.546875 C 5.316406 14.554688 7.015625 15.0625 9.203125 15.0625 L 15.78125 15.0625 C 17.945312 15.0625 19.644531 14.554688 20.875 13.546875 C 22.070312 12.535156 22.671875 10.957031 22.671875 8.8125 L 22.671875 -16.53125 L 16.640625 -16.53125 L 16.640625 -14.8125 C 16.398438 -14.945312 16.140625 -15.070312 15.859375 -15.1875 C 15.585938 -15.3125 15.285156 -15.425781 14.953125 -15.53125 C 14.253906 -15.71875 13.664062 -15.8125 13.1875 -15.8125 L 8.84375 -15.8125 C 6.65625 -15.8125 4.957031 -15.316406 3.75 -14.328125 C 2.550781 -13.347656 1.953125 -11.773438 1.953125 -9.609375 L 1.953125 -2.34375 C 1.953125 -0.175781 2.550781 1.398438 3.75 2.390625 C 4.957031 3.367188 6.65625 3.859375 8.84375 3.859375 L 13.1875 3.859375 C 13.664062 3.859375 14.253906 3.765625 14.953125 3.578125 C 15.285156 3.453125 15.585938 3.332031 15.859375 3.21875 C 16.140625 3.113281 16.398438 2.992188 16.640625 2.859375 Z M 7.984375 -2.78125 L 7.984375 -9.171875 C 7.984375 -10.515625 8.65625 -11.1875 10 -11.1875 L 14.625 -11.1875 C 15.96875 -11.1875 16.640625 -10.515625 16.640625 -9.171875 L 16.640625 -2.78125 C 16.640625 -1.4375 15.96875 -0.765625 14.625 -0.765625 L 10 -0.765625 C 8.65625 -0.765625 7.984375 -1.4375 7.984375 -2.78125 Z M 7.984375 -2.78125 "/></g></g></g><g fill="#0048e8" fill-opacity="1"><g transform="translate(60.706515, 36.070367)"><g><path d="M 16.640625 -9.421875 L 16.640625 -0.71875 C 16.640625 0 16.507812 0.515625 16.25 0.828125 C 15.9375 1.097656 15.523438 1.234375 15.015625 1.234375 L 10 1.234375 C 9.132812 1.234375 8.582031 1.078125 8.34375 0.765625 C 8.101562 0.421875 7.984375 -0.0976562 7.984375 -0.796875 L 7.984375 -9.359375 C 7.984375 -10.054688 8.101562 -10.570312 8.34375 -10.90625 C 8.582031 -11.21875 9.132812 -11.375 10 -11.375 L 15.015625 -11.375 C 15.523438 -11.375 15.9375 -11.242188 16.25 -10.984375 C 16.507812 -10.671875 16.640625 -10.148438 16.640625 -9.421875 Z M 22.671875 -0.546875 L 22.671875 -9.609375 C 22.671875 -11.503906 22.117188 -13.03125 21.015625 -14.1875 C 19.910156 -15.269531 18.164062 -15.8125 15.78125 -15.8125 L 8.84375 -15.8125 C 6.4375 -15.8125 4.691406 -15.269531 3.609375 -14.1875 C 2.503906 -13.082031 1.953125 -11.554688 1.953125 -9.609375 L 1.953125 -0.546875 C 1.953125 1.410156 2.503906 2.941406 3.609375 4.046875 C 4.691406 5.128906 6.4375 5.671875 8.84375 5.671875 L 15.78125 5.671875 C 18.164062 5.671875 19.910156 5.128906 21.015625 4.046875 C 22.117188 2.890625 22.671875 1.359375 22.671875 -0.546875 Z M 22.671875 -0.546875 "/></g></g></g><g fill="#0048e8" fill-opacity="1"><g transform="translate(85.335811, 36.070367)"><g><path d="M 2.34375 5.671875 L 8.5625 5.671875 L 8.5625 -0.109375 L 2.34375 -0.109375 Z M 2.34375 5.671875 "/></g></g></g><g fill="#0048e8" fill-opacity="1"><g transform="translate(96.025357, 36.070367)"><g><path d="M 11.265625 -15.234375 L 11.265625 -17.328125 C 11.265625 -18.171875 11.429688 -18.765625 11.765625 -19.109375 C 12.078125 -19.421875 12.65625 -19.578125 13.5 -19.578125 L 15.28125 -19.578125 L 15.28125 -24.375 L 11.8125 -24.375 C 9.613281 -24.375 7.972656 -23.976562 6.890625 -23.1875 C 5.785156 -22.382812 5.234375 -21.007812 5.234375 -19.0625 L 5.234375 -15.234375 L 1.234375 -15.234375 L 1.234375 -10.796875 L 5.234375 -10.796875 L 5.234375 5.671875 L 11.265625 5.671875 L 11.265625 -10.796875 L 15.28125 -10.796875 L 15.28125 -15.234375 Z M 11.265625 -15.234375 "/></g></g></g><g fill="#0048e8" fill-opacity="1"><g transform="translate(112.529151, 36.070367)"><g><path d="M 8.375 -14.546875 L 2.34375 -14.546875 L 2.34375 5.671875 L 8.375 5.671875 Z M 2.34375 -24.375 L 2.34375 -17.1875 L 8.375 -17.1875 L 8.375 -24.375 Z M 2.34375 -24.375 "/></g></g></g><g fill="#0048e8" fill-opacity="1"><g transform="translate(123.254804, 36.070367)"><g><path d="M 22.671875 -2.34375 L 22.671875 -9.609375 C 22.671875 -11.742188 22.070312 -13.316406 20.875 -14.328125 C 19.625 -15.316406 17.925781 -15.8125 15.78125 -15.8125 L 11.453125 -15.8125 C 11.160156 -15.8125 10.867188 -15.785156 10.578125 -15.734375 C 10.285156 -15.691406 9.972656 -15.625 9.640625 -15.53125 C 9.328125 -15.425781 9.023438 -15.3125 8.734375 -15.1875 C 8.453125 -15.070312 8.203125 -14.945312 7.984375 -14.8125 L 7.984375 -16.53125 L 1.953125 -16.53125 L 1.953125 13.96875 L 7.984375 13.96875 L 7.984375 2.859375 C 8.203125 2.992188 8.453125 3.113281 8.734375 3.21875 C 9.023438 3.332031 9.328125 3.453125 9.640625 3.578125 C 9.972656 3.671875 10.285156 3.738281 10.578125 3.78125 C 10.867188 3.832031 11.160156 3.859375 11.453125 3.859375 L 15.78125 3.859375 C 17.925781 3.859375 19.625 3.367188 20.875 2.390625 C 22.070312 1.367188 22.671875 -0.207031 22.671875 -2.34375 Z M 16.640625 -9.171875 L 16.640625 -2.78125 C 16.640625 -1.4375 15.96875 -0.765625 14.625 -0.765625 L 10 -0.765625 C 8.65625 -0.765625 7.984375 -1.4375 7.984375 -2.78125 L 7.984375 -9.171875 C 7.984375 -10.515625 8.65625 -11.1875 10 -11.1875 L 14.625 -11.1875 C 15.96875 -11.1875 16.640625 -10.515625 16.640625 -9.171875 Z M 16.640625 -9.171875 "/></g></g></g><g fill="#0048e8" fill-opacity="1"><g transform="translate(147.884107, 36.070367)"><g><path d="M 16.640625 -9.421875 L 16.640625 -0.71875 C 16.640625 0 16.507812 0.515625 16.25 0.828125 C 15.9375 1.097656 15.523438 1.234375 15.015625 1.234375 L 10 1.234375 C 9.132812 1.234375 8.582031 1.078125 8.34375 0.765625 C 8.101562 0.421875 7.984375 -0.0976562 7.984375 -0.796875 L 7.984375 -9.359375 C 7.984375 -10.054688 8.101562 -10.570312 8.34375 -10.90625 C 8.582031 -11.21875 9.132812 -11.375 10 -11.375 L 15.015625 -11.375 C 15.523438 -11.375 15.9375 -11.242188 16.25 -10.984375 C 16.507812 -10.671875 16.640625 -10.148438 16.640625 -9.421875 Z M 22.671875 -0.546875 L 22.671875 -9.609375 C 22.671875 -11.503906 22.117188 -13.03125 21.015625 -14.1875 C 19.910156 -15.269531 18.164062 -15.8125 15.78125 -15.8125 L 8.84375 -15.8125 C 6.4375 -15.8125 4.691406 -15.269531 3.609375 -14.1875 C 2.503906 -13.082031 1.953125 -11.554688 1.953125 -9.609375 L 1.953125 -0.546875 C 1.953125 1.410156 2.503906 2.941406 3.609375 4.046875 C 4.691406 5.128906 6.4375 5.671875 8.84375 5.671875 L 15.78125 5.671875 C 18.164062 5.671875 19.910156 5.128906 21.015625 4.046875 C 22.117188 2.890625 22.671875 1.359375 22.671875 -0.546875 Z M 22.671875 -0.546875 "/></g></g></g></svg>